<svg version="1.2" baseProfile="tiny" xmlns="http://www.w3.org/2000/svg" width="200" height="80" viewBox="280.445 438.138 200 80" xml:space="preserve">
  <path fill="#FFF" d="M280.445 438.138h200v80h-200z"/>
  <path fill="#C72C18" d="M301.842 466.335h4.816v14.951c0 2.106.334 3.109.602 3.711.77 1.706 2.32 2.924 4.126 2.905 3.508-.037 4.385-1.169 5.239-2.12v-19.447h4.75v23.611s-2.292-.653-4.873-.473c-2.67.186-4.093 1.169-6.733 1.209-2.508.039-4.415-.702-5.786-2.072-1.438-1.472-2.14-3.313-2.14-7.627v-14.648zm-20.056 16.831c.436.872.872 1.777 1.744 2.649 1.442 1.408 3.419 2.012 5.432 2.012 3.353 0 4.996-2.045 4.996-4.058 0-2.548-2.045-3.286-4.929-3.855-2.683-.536-7.678-1.542-7.678-6.974 0-2.615 1.442-7.376 9.12-7.376.972 0 4.225.033 6.27 2.146 1.442 1.476 1.609 3.118 1.71 3.923l-1.375.368c-.301-.737-.57-1.307-1.173-1.91-1.04-1.006-2.682-1.677-4.728-1.677-2.682 0-5.063 1.206-5.063 3.654 0 .269.033.704.201 1.14.705 1.744 2.515 2.113 5.063 2.615 1.643.369 4.091.939 5.633 2.481 1.14 1.073 1.878 2.716 1.878 4.56 0 2.045-.872 3.923-2.079 5.196-2.548 2.649-6.471 2.649-7.477 2.649-1.207 0-4.493-.066-6.739-2.313-1.643-1.608-1.945-3.521-2.146-4.761l1.34-.469zm43.074-16.831h8.516c2.247 0 6.102.067 9.052 2.951 2.179 2.111 3.386 5.564 3.386 8.851 0 3.253-1.106 6.438-3.386 8.751-2.749 2.75-5.8 3.118-9.891 3.118h-7.678l.001-23.671zm8.081 20.418c2.011 0 4.057-.436 5.465-1.877 1.744-1.777 2.347-4.291 2.347-6.772 0-3.788-1.542-6.202-3.151-7.31-2.012-1.374-4.66-1.341-7.946-1.273v17.233l3.285-.001z"/>
  <path fill="#7F7F83" d="M357.542 466.335h-1.643l-11.231 23.671h4.158L356 473.979l7.309 16.027h5.097z"/>
  <path fill="#C72C18" d="M370.911 466.335h8.416c2.515 0 4.157.303 5.532 1.207 1.911 1.273 2.548 3.42 2.548 5.097a6.46 6.46 0 0 1-1.073 3.587c-.973 1.477-2.079 2.045-3.051 2.549l6.604 11.231h-5.365s-3.729-6.092-6.193-9.296c-.614-.799-1.902-.986-2.625-.756v10.052h-4.794v-23.671h.001zm4.795 12.031c1.307-.035 2.649-.497 3.956-1.033 1.207-.504 2.816-1.677 2.816-3.957 0-.537-.101-2.279-1.777-3.186-.972-.536-2.079-.603-3.017-.603-.637 0-1.375.032-1.979.032v8.747h.001zm15.959 4.8c.436.872.872 1.777 1.744 2.649 1.441 1.408 3.419 2.012 5.432 2.012 3.353 0 4.996-2.045 4.996-4.058 0-2.548-2.045-3.286-4.929-3.855-2.683-.536-7.678-1.542-7.678-6.974 0-2.615 1.442-7.376 9.119-7.376.973 0 4.226.033 6.271 2.146 1.441 1.476 1.608 3.118 1.71 3.923l-1.375.368c-.302-.737-.57-1.307-1.174-1.91-1.039-1.006-2.682-1.677-4.727-1.677-2.683 0-5.062 1.206-5.062 3.654 0 .269.033.704.2 1.14.705 1.744 2.515 2.113 5.063 2.615 1.643.369 4.091.939 5.633 2.481 1.14 1.073 1.877 2.716 1.877 4.56 0 2.045-.872 3.923-2.079 5.196-2.548 2.649-6.47 2.649-7.477 2.649-1.207 0-4.492-.066-6.738-2.313-1.644-1.608-1.946-3.521-2.146-4.761l1.34-.469zm20.418-16.831h4.761v9.724h9.957v-9.724h4.762v23.671H426.8v-10.729h-9.957v10.729h-4.761v-23.671z"/>
  <path fill="#7F7F83" d="M446.583 466.335h-1.644l-11.231 23.671h4.158l7.175-16.027 7.308 16.027h5.097z"/>
  <path fill="#C72C18" d="M459.591 466.335h4.258l11.936 13.411c.336.437.437.57.906 1.073v-14.484h3.754v23.939h-1.173l-15.858-17.703v17.435h-3.822v-23.671h-.001z"/>
</svg>
